<?xml version="1.0" standalone="no"?><!DOCTYPE svg PUBLIC "-//W3C//DTD SVG 1.1//EN" "http://www.w3.org/Graphics/SVG/1.1/DTD/svg11.dtd"><svg t="1581607208985" class="icon" viewBox="0 0 1024 1024" version="1.1" xmlns="http://www.w3.org/2000/svg" p-id="13453" xmlns:xlink="http://www.w3.org/1999/xlink" width="200" height="200"><defs><style type="text/css"></style></defs><path d="M736.779125 956.09273375l-477.29825062 0.10282219h-0.03427313c-66.73127156-0.10282125-121.15821563-57.85433344-121.22676375-128.73274688V194.04697156C138.28838469 123.16855813 192.71532875 65.41704688 259.44660125 65.31422469h477.29824969C803.51039655 65.41704688 857.93734062 123.16855813 858.00588781 194.04697156v633.31301625c-0.06854813 70.91268656-54.49549125 128.66419875-121.22676281 128.73274594z m57.71723719-762.04576219c-0.06854813-33.72551156-25.94533781-61.21317469-57.75151125-61.28172281l-477.26397657 0.10282124c-31.77190031 0.03427406-57.68296406 27.52193719-57.71723718 61.28172282v633.31301625c0.03427406 33.72551156 25.94533781 61.21317469 57.71723719 61.24744875h477.26397656c31.80617345-0.03427406 57.68296406-27.52193719 57.75151125-61.28172281V194.04697156z m-106.2147975 350.519115l-1.74796875-0.06854718-378.65798251 0.06854718a31.63480406 31.63480406 0 0 1-27.24774562-16.34864718 35.40493219 35.40493219 0 0 1-0.03427406-34.85655 31.70335219 31.70335219 0 0 1 27.24774563-16.34864813l1.78224281 0.06854813 378.69225656-0.06854813c11.07046781 0 21.48973125 6.2721225 27.21347156 16.34864813 6.10075312 10.76200311 6.10075312 24.12882187 0 34.85655a31.63480406 31.63480406 0 0 1-27.24774562 16.34864718z m-1.40523-127.05332531H309.28084345c-17.54823375 0-31.8404475-15.14906156-31.84044845-33.79405969 0-18.61072406 14.29221375-33.75978562 31.84044845-33.75978562h377.59549124c17.54823375 0 31.80617345 15.14906156 31.80617344 33.75978562 0 18.64499813-14.25793969 33.79405968-31.80617344 33.79405969zM310.10341625 604.0655675l256.81428938-0.03427406c17.54823375 0 31.80617345 15.14906156 31.80617343 33.75978562 0 18.61072406-14.25793969 33.75978562-31.80617343 33.75978563l-257.67113625-0.41128688a31.36061344 31.36061344 0 0 1-29.9896575-15.45752625 35.81621906 35.81621906 0 0 1 0-36.19323187 31.18924406 31.18924406 0 0 1 30.84650437-15.42325219z" p-id="13454"></path></svg>