<?xml version="1.0" standalone="no"?><!DOCTYPE svg PUBLIC "-//W3C//DTD SVG 1.1//EN" "http://www.w3.org/Graphics/SVG/1.1/DTD/svg11.dtd"><svg t="1581607203647" class="icon" viewBox="0 0 1024 1024" version="1.1" xmlns="http://www.w3.org/2000/svg" p-id="13315" xmlns:xlink="http://www.w3.org/1999/xlink" width="200" height="200"><defs><style type="text/css"></style></defs><path d="M800 640c12.8 12.8 32 6.4 44.8-6.4 12.8-12.8 6.4-32-6.4-44.8-44.8-38.4-102.4-57.6-153.6-76.8 76.8-51.2 134.4-134.4 134.4-236.8 0-153.6-121.6-275.2-275.2-275.2S262.4 121.6 262.4 275.2c0 102.4 51.2 185.6 134.4 236.8C192 576 38.4 768 38.4 992c0 19.2 12.8 32 32 32s32-12.8 32-32c0-243.2 198.4-435.2 435.2-435.2 96 0 192 25.6 262.4 83.2zM326.4 275.2C326.4 160 422.4 64 544 64s211.2 96 211.2 211.2-96 211.2-211.2 211.2-217.6-89.6-217.6-211.2zM953.6 960h-384c-19.2 0-32 12.8-32 32s12.8 32 32 32h384c19.2 0 32-12.8 32-32s-19.2-32-32-32z" fill="" p-id="13316"></path><path d="M537.6 787.2c0 19.2 12.8 32 32 32h384c19.2 0 32-12.8 32-32s-12.8-32-32-32h-384c-19.2 0-32 12.8-32 32z" fill="" p-id="13317"></path></svg>